<?xml version="1.0" encoding="UTF-8" standalone="no"?>
<svg
   viewBox="0 0 100 100"
   height="100"
   width="100"
   fill="#e25a1c"
   version="1.1"
   id="svg3"
   sodipodi:docname="apache_spark_logo_icon_170560 (1).svg"
   inkscape:version="1.3.1 (9b9bdc1480, 2023-11-25, custom)"
   inkscape:export-filename="apache_spark_logo_icon_170560 (1).svg"
   inkscape:export-xdpi="105.22"
   inkscape:export-ydpi="105.22"
   xmlns:inkscape="http://www.inkscape.org/namespaces/inkscape"
   xmlns:sodipodi="http://sodipodi.sourceforge.net/DTD/sodipodi-0.dtd"
   xmlns="http://www.w3.org/2000/svg"
   xmlns:svg="http://www.w3.org/2000/svg">
  <defs
     id="defs3" />
  <sodipodi:namedview
     id="namedview3"
     pagecolor="#505050"
     bordercolor="#eeeeee"
     borderopacity="1"
     inkscape:showpageshadow="0"
     inkscape:pageopacity="0"
     inkscape:pagecheckerboard="0"
     inkscape:deskcolor="#505050"
     inkscape:zoom="2"
     inkscape:cx="31.75"
     inkscape:cy="32"
     inkscape:window-width="1920"
     inkscape:window-height="1136"
     inkscape:window-x="0"
     inkscape:window-y="0"
     inkscape:window-maximized="1"
     inkscape:current-layer="svg3" />
  <ellipse
     style="fill:#f9f9f9;fill-opacity:1;stroke-width:1.16898"
     id="path4"
     cx="50.627319"
     cy="49.935837"
     rx="47.252827"
     ry="45.580715"
     inkscape:export-filename="apache_spark_logo_icon_170560 (1).svg"
     inkscape:export-xdpi="100"
     inkscape:export-ydpi="100" />
  <path
     id="path1"
     d="m 45.268855,13.221677 c -1.35192,0.03693 -2.687601,0.653982 -3.802857,1.844495 -0.615828,0.656986 -1.134912,1.437734 -1.567252,2.209364 -1.126151,2.026075 -1.347769,4.320772 -1.765201,6.545266 l -2.293827,12.488389 c -0.0883,0.490536 -0.319083,0.69385 -0.7778,0.834947 l -16.841582,5.143991 c -1.227068,0.384712 -2.455994,0.882075 -3.539714,1.546778 -3.311926,2.020565 -3.803167,5.345481 -1.318077,8.266646 1.098627,1.291926 2.511178,2.199361 4.07999,2.860756 l 10.488728,4.492597 a 0.92890218,0.89288528 0 0 0 0.202592,0.04252 l 2.289171,1.587071 c 0,0 -2.204571,23.459359 1.937529,25.073029 -0.03785,-0.007 -0.249175,-0.047 -0.249175,-0.047 0,0 0.421435,0.438873 1.555613,0.308909 0.860049,0.153187 0.748948,0.127292 0.04427,-0.0067 1.53895,-0.193531 4.368295,-1.433098 9.270776,-6.171445 0.634968,-0.548756 1.064247,-0.967015 1.064247,-0.967015 l 10.60516,-11.004314 2.480135,0.839424 c 0.08944,0.117899 0.219885,0.193713 0.42616,0.252947 l 11.811461,3.453949 c 1.61239,0.47841 3.212121,0.831227 4.93231,0.588715 3.072257,-0.432111 5.33121,-2.863802 5.300247,-5.835675 -0.01147,-1.306256 -0.489291,-2.486471 -1.113147,-3.624072 L 70.666313,49.686243 c -0.248854,-0.451953 -0.240172,-0.742642 0.118773,-1.146094 l 13.138829,-14.84549 c 0.85092,-0.975559 1.618319,-2.017544 2.063275,-3.230104 0.978215,-2.674243 -0.286515,-4.800531 -3.176421,-5.320828 -1.326839,-0.228183 -2.637371,-0.109119 -3.930942,0.21937 l -18.825682,4.808219 c -0.555048,0.143303 -0.826665,0.04405 -1.127125,-0.440977 L 51.239792,17.454612 C 50.658369,16.528658 49.965408,15.625247 49.169533,14.860233 47.99063,13.727041 46.620786,13.184749 45.268855,13.221677 Z m 0.56124,11.302002 c 0.3039,0.203932 0.459795,0.415394 0.603144,0.644678 l 8.26942,13.247229 c 0.225919,0.359358 0.430759,0.486193 0.882595,0.369347 l 14.56405,-3.720328 3.507111,-0.881954 c -0.05389,0.282196 -0.181457,0.452365 -0.321366,0.611101 L 61.325651,48.352127 c -0.33945,0.39353 -0.370999,0.669684 -0.114105,1.132662 l 7.591745,13.833706 0.346985,0.709592 -0.0092,0.01119 -13.541731,-3.588257 -0.0023,-0.0089 -2.559298,-0.691687 -15.188159,16.184093 2.778209,-21.276597 -2.494102,-1.045362 0.0046,-0.0022 -14.105288,-5.383506 c 0.269497,-0.235897 0.513866,-0.332475 0.766161,-0.409638 l 17.144311,-5.208905 c 0.403671,-0.122359 0.634028,-0.268663 0.673019,-0.709593 l 0.237633,-1.349845 2.307794,-12.488389 z"
     style="stroke-width:1.12434" />
</svg>
